# xmcd
#
# Track frame offsets:
#	182
#	11245
#	21027
#	30970
#	39620
#	50985
#	61005
#	70832
#	81425
#	90170
#	99220
#	110397
#	120945
#	131292
#	142547
#	158247
#	167250
#	179742
#	188952
#	199037
#	215202
#	224497
#
# Disc length: 3148 seconds
# Revision: 2
# Processed by: cddbd v1.5.2PL0 Copyright (c) Steve Scherf et al.
# Submitted via: dBpowerAMP V12.0
#
DISCID=250c4a16
DTITLE=Buck Owens - The Buck Owens Story
DYEAR=1964
DGENRE=Country
TTITLE0=Together Again
TTITLE1=I Don't Care (Just as Long as You Love Me)
TTITLE2=A-11
TTITLE3=Buck's Polka
TTITLE4=Cryin' Time 1964
TTITLE5=I've Got a Tiger by the Tail
TTITLE6=Before You Go
TTITLE7=Only You (Can Break My Heart)
TTITLE8=Gonna Have Love
TTITLE9=Buckaroo
TTITLE10=Memphis
TTITLE11=Waitin' in the Welfare Line
TTITLE12=Think of Me
TTITLE13=Open Up Your Heart
TTITLE14=Dust on Mother's Bible
TTITLE15=Sam's Place
TTITLE16=Your Tender Loving Care
TTITLE17=It Takes People Like You (To Make People Like Me)
TTITLE18=How Long Will My Baby Be Gone
TTITLE19=Sweet Rosie Jones
TTITLE20=Let The World Keep On A Turnin'
TTITLE21=I've Got You on My Mind Again
EXTD=
EXTT0=
EXTT1=
EXTT2=
EXTT3=
EXTT4=
EXTT5=
EXTT6=
EXTT7=
EXTT8=
EXTT9=
EXTT10=
EXTT11=
EXTT12=
EXTT13=
EXTT14=
EXTT15=
EXTT16=
EXTT17=
EXTT18=
EXTT19=
EXTT20=
EXTT21=
PLAYORDER=
